<mxfile host="65bd71144e">
    <diagram id="T7OU0qqY4D3rw8SHvc-g" name="Page-1">
        <mxGraphModel dx="123" dy="207" grid="1" gridSize="10" guides="1" tooltips="1" connect="1" arrows="1" fold="1" page="1" pageScale="1" pageWidth="850" pageHeight="1100" math="0" shadow="0">
            <root>
                <mxCell id="0"/>
                <mxCell id="1" parent="0"/>
                <mxCell id="9" style="edgeStyle=orthogonalEdgeStyle;html=1;exitX=0.5;exitY=1;exitDx=0;exitDy=0;entryX=0.5;entryY=0;entryDx=0;entryDy=0;rounded=0;" parent="1" source="4" target="5" edge="1">
                    <mxGeometry relative="1" as="geometry"/>
                </mxCell>
                <mxCell id="10" style="edgeStyle=orthogonalEdgeStyle;html=1;exitX=0.5;exitY=1;exitDx=0;exitDy=0;entryX=0.5;entryY=0;entryDx=0;entryDy=0;rounded=0;" parent="1" source="4" target="6" edge="1">
                    <mxGeometry relative="1" as="geometry"/>
                </mxCell>
                <mxCell id="11" style="edgeStyle=orthogonalEdgeStyle;html=1;exitX=0.5;exitY=1;exitDx=0;exitDy=0;entryX=0.5;entryY=0;entryDx=0;entryDy=0;strokeColor=none;rounded=0;" parent="1" source="4" target="7" edge="1">
                    <mxGeometry relative="1" as="geometry">
                        <Array as="points">
                            <mxPoint x="340" y="100"/>
                            <mxPoint x="420" y="100"/>
                        </Array>
                    </mxGeometry>
                </mxCell>
                <mxCell id="12" style="edgeStyle=orthogonalEdgeStyle;html=1;exitX=0.5;exitY=1;exitDx=0;exitDy=0;entryX=0.5;entryY=0;entryDx=0;entryDy=0;rounded=0;" parent="1" source="4" target="8" edge="1">
                    <mxGeometry relative="1" as="geometry"/>
                </mxCell>
                <mxCell id="4" value="Subject" style="rounded=1;whiteSpace=wrap;html=1;fillColor=#314559;strokeColor=none;" parent="1" vertex="1">
                    <mxGeometry x="280" y="40" width="120" height="40" as="geometry"/>
                </mxCell>
                <mxCell id="5" value="Course" style="rounded=1;whiteSpace=wrap;html=1;fillColor=#3EAF7C;strokeColor=none;" parent="1" vertex="1">
                    <mxGeometry x="40" y="120" width="120" height="40" as="geometry"/>
                </mxCell>
                <mxCell id="6" value="Course" style="rounded=1;whiteSpace=wrap;html=1;fillColor=#3EAF7C;strokeColor=none;" parent="1" vertex="1">
                    <mxGeometry x="200" y="120" width="120" height="40" as="geometry"/>
                </mxCell>
                <mxCell id="17" style="edgeStyle=orthogonalEdgeStyle;html=1;exitX=0.5;exitY=1;exitDx=0;exitDy=0;entryX=0.5;entryY=0;entryDx=0;entryDy=0;rounded=0;" parent="1" source="7" target="21" edge="1">
                    <mxGeometry relative="1" as="geometry">
                        <Array as="points"/>
                        <mxPoint x="420" y="200" as="targetPoint"/>
                    </mxGeometry>
                </mxCell>
                <mxCell id="18" style="edgeStyle=orthogonalEdgeStyle;html=1;exitX=0.5;exitY=1;exitDx=0;exitDy=0;entryX=0.5;entryY=0;entryDx=0;entryDy=0;rounded=0;" parent="1" source="7" target="15" edge="1">
                    <mxGeometry relative="1" as="geometry">
                        <Array as="points">
                            <mxPoint x="420" y="180"/>
                            <mxPoint x="320" y="180"/>
                        </Array>
                    </mxGeometry>
                </mxCell>
                <mxCell id="19" style="edgeStyle=orthogonalEdgeStyle;html=1;exitX=0.5;exitY=1;exitDx=0;exitDy=0;entryX=0.5;entryY=0;entryDx=0;entryDy=0;rounded=0;" parent="1" source="7" target="20" edge="1">
                    <mxGeometry relative="1" as="geometry">
                        <mxPoint x="520" y="200" as="targetPoint"/>
                    </mxGeometry>
                </mxCell>
                <mxCell id="7" value="Course" style="rounded=1;whiteSpace=wrap;html=1;fillColor=#3EAF7C;strokeColor=none;" parent="1" vertex="1">
                    <mxGeometry x="360" y="120" width="120" height="40" as="geometry"/>
                </mxCell>
                <mxCell id="8" value="Course" style="rounded=1;whiteSpace=wrap;html=1;fillColor=#3EAF7C;strokeColor=none;" parent="1" vertex="1">
                    <mxGeometry x="520" y="120" width="120" height="40" as="geometry"/>
                </mxCell>
                <mxCell id="24" style="edgeStyle=orthogonalEdgeStyle;rounded=0;html=1;exitX=0.5;exitY=1;exitDx=0;exitDy=0;entryX=0.499;entryY=0.076;entryDx=0;entryDy=0;entryPerimeter=0;" parent="1" source="15" target="23" edge="1">
                    <mxGeometry relative="1" as="geometry"/>
                </mxCell>
                <mxCell id="15" value="Module" style="rounded=1;whiteSpace=wrap;html=1;fillColor=#7D699F;strokeColor=none;" parent="1" vertex="1">
                    <mxGeometry x="280" y="200" width="80" height="40" as="geometry"/>
                </mxCell>
                <mxCell id="20" value="Module" style="rounded=1;whiteSpace=wrap;html=1;fillColor=#7D699F;strokeColor=none;" parent="1" vertex="1">
                    <mxGeometry x="480" y="200" width="80" height="40" as="geometry"/>
                </mxCell>
                <mxCell id="21" value="Module" style="rounded=1;whiteSpace=wrap;html=1;fillColor=#7D699F;strokeColor=none;" parent="1" vertex="1">
                    <mxGeometry x="380" y="200" width="80" height="40" as="geometry"/>
                </mxCell>
                <mxCell id="23" value="" style="verticalLabelPosition=bottom;shadow=0;dashed=0;align=center;html=1;verticalAlign=top;strokeWidth=1;shape=mxgraph.mockup.markup.curlyBrace;strokeColor=#999999;" parent="1" vertex="1">
                    <mxGeometry x="270" y="260" width="100" height="20" as="geometry"/>
                </mxCell>
                <mxCell id="34" value="" style="group" parent="1" vertex="1" connectable="0">
                    <mxGeometry x="270" y="350" width="100" height="50" as="geometry"/>
                </mxCell>
                <mxCell id="36" value="" style="group" parent="34" vertex="1" connectable="0">
                    <mxGeometry width="100" height="50" as="geometry"/>
                </mxCell>
                <mxCell id="29" value="Content&amp;nbsp; &amp;nbsp;" style="rounded=1;whiteSpace=wrap;html=1;align=right;strokeColor=none;fillColor=#47C3BE;" parent="36" vertex="1">
                    <mxGeometry width="100" height="50" as="geometry"/>
                </mxCell>
                <mxCell id="27" value="" style="sketch=0;html=1;aspect=fixed;strokeColor=#47C3BE;shadow=0;align=center;verticalAlign=top;fillColor=#eeeeee;shape=mxgraph.gcp2.play_start;strokeWidth=1;" parent="36" vertex="1">
                    <mxGeometry x="8.75" y="10" width="30" height="30" as="geometry"/>
                </mxCell>
                <mxCell id="35" value="" style="group" parent="1" vertex="1" connectable="0">
                    <mxGeometry x="270" y="290" width="100" height="50" as="geometry"/>
                </mxCell>
                <mxCell id="37" value="" style="group" parent="35" vertex="1" connectable="0">
                    <mxGeometry width="100" height="50" as="geometry"/>
                </mxCell>
                <mxCell id="25" value="Content&amp;nbsp; &amp;nbsp;" style="rounded=1;whiteSpace=wrap;html=1;align=right;strokeColor=none;fillColor=#47C3BE;" parent="37" vertex="1">
                    <mxGeometry width="100" height="50" as="geometry"/>
                </mxCell>
                <mxCell id="26" value="" style="verticalLabelPosition=bottom;html=1;verticalAlign=top;align=center;strokeColor=none;fillColor=#f9f7ed;shape=mxgraph.azure.file;pointerEvents=1;" parent="37" vertex="1">
                    <mxGeometry x="10" y="10" width="27.5" height="30" as="geometry"/>
                </mxCell>
                <mxCell id="38" value="" style="group" parent="1" vertex="1" connectable="0">
                    <mxGeometry x="270" y="410" width="100" height="50" as="geometry"/>
                </mxCell>
                <mxCell id="39" value="" style="group" parent="38" vertex="1" connectable="0">
                    <mxGeometry width="100" height="50" as="geometry"/>
                </mxCell>
                <mxCell id="40" value="Content&amp;nbsp; &amp;nbsp;" style="rounded=1;whiteSpace=wrap;html=1;align=right;strokeColor=none;fillColor=#47C3BE;" parent="39" vertex="1">
                    <mxGeometry width="100" height="50" as="geometry"/>
                </mxCell>
                <mxCell id="41" value="" style="verticalLabelPosition=bottom;html=1;verticalAlign=top;align=center;strokeColor=none;fillColor=#f9f7ed;shape=mxgraph.azure.file;pointerEvents=1;" parent="39" vertex="1">
                    <mxGeometry x="10" y="10" width="27.5" height="30" as="geometry"/>
                </mxCell>
            </root>
        </mxGraphModel>
    </diagram>
</mxfile>